<svg width="27" height="27" viewBox="0 0 27 27" fill="none" xmlns="http://www.w3.org/2000/svg">
<path d="M18.9437 2.43457H7.9578C4.92412 2.43457 2.46484 4.89385 2.46484 7.92752V18.9134C2.46484 21.9471 4.92412 24.4064 7.9578 24.4064H18.9437C21.9774 24.4064 24.4367 21.9471 24.4367 18.9134V7.92752C24.4367 4.89385 21.9774 2.43457 18.9437 2.43457Z" stroke="#F8EFF2" stroke-width="1.22686" stroke-linecap="round" stroke-linejoin="round"/>
<path d="M17.845 12.7284C17.9805 13.6427 17.8244 14.5765 17.3987 15.3969C16.973 16.2173 16.2994 16.8826 15.4738 17.2982C14.6482 17.7138 13.7126 17.8584 12.8 17.7116C11.8874 17.5647 11.0444 17.1339 10.3908 16.4803C9.73727 15.8267 9.30642 14.9837 9.15957 14.0711C9.01273 13.1586 9.15737 12.223 9.57293 11.3973C9.98848 10.5717 10.6538 9.89817 11.4742 9.47247C12.2946 9.04676 13.2284 8.8906 14.1427 9.02617C15.0753 9.16447 15.9387 9.59905 16.6054 10.2657C17.2721 10.9324 17.7067 11.7958 17.845 12.7284Z" stroke="#F8EFF2" stroke-width="1.22686" stroke-linecap="round" stroke-linejoin="round"/>
<path d="M19.4929 7.3783H19.5039" stroke="#F8EFF2" stroke-width="1.22686" stroke-linecap="round" stroke-linejoin="round"/>
</svg>
