<svg width="28" height="27" viewBox="0 0 28 27" fill="none" xmlns="http://www.w3.org/2000/svg">
<path d="M26.169 3.53314C25.117 4.27521 23.9522 4.84278 22.7194 5.21399C22.0578 4.45322 21.1785 3.91401 20.2004 3.66929C19.2223 3.42456 18.1927 3.48612 17.2507 3.84564C16.3088 4.20516 15.5 4.8453 14.9337 5.67948C14.3674 6.51365 14.071 7.50162 14.0845 8.50976V9.60835C12.1539 9.65841 10.2408 9.23023 8.51575 8.36194C6.79067 7.49365 5.30711 6.2122 4.19718 4.63173C4.19718 4.63173 -0.197181 14.519 9.69014 18.9134C7.42762 20.4492 4.73237 21.2193 2 21.1106C11.8873 26.6035 23.9718 21.1106 23.9718 8.4768C23.9708 8.17079 23.9414 7.86554 23.8839 7.56497C25.0052 6.45923 25.7964 5.06316 26.169 3.53314V3.53314Z" stroke="#F8EFF2" stroke-width="1.22686" stroke-linecap="round" stroke-linejoin="round"/>
</svg>
